<svg xmlns="http://www.w3.org/2000/svg" viewBox="0 0 128 128" role="img" aria-labelledby="title desc">
  <title id="title">Page Reader icon</title>
  <desc id="desc">A modern book and sound wave mark for the Page Reader extension.</desc>
  <defs>
    <linearGradient id="bg" x1="18" y1="12" x2="108" y2="118" gradientUnits="userSpaceOnUse">
      <stop offset="0" stop-color="#0ea66f"/>
      <stop offset="0.52" stop-color="#08704d"/>
      <stop offset="1" stop-color="#12312b"/>
    </linearGradient>
    <linearGradient id="page" x1="32" y1="31" x2="86" y2="94" gradientUnits="userSpaceOnUse">
      <stop offset="0" stop-color="#fffdf6"/>
      <stop offset="1" stop-color="#dff4eb"/>
    </linearGradient>
    <filter id="shadow" x="-20%" y="-20%" width="140%" height="150%">
      <feDropShadow dx="0" dy="8" stdDeviation="8" flood-color="#04291c" flood-opacity="0.28"/>
    </filter>
  </defs>
  <rect width="128" height="128" rx="28" fill="url(#bg)"/>
  <circle cx="101" cy="24" r="17" fill="#72f0b8" opacity="0.24"/>
  <path d="M31 33h31c7.5 0 13 5.5 13 13v50H43c-7 0-12-5-12-12V33Z" fill="url(#page)" filter="url(#shadow)"/>
  <path d="M75 46c0-7.5 5.5-13 13-13h9v63H75V46Z" fill="#f6fff9" opacity="0.9" filter="url(#shadow)"/>
  <path d="M42 49h19M42 62h21M42 75h16" stroke="#08704d" stroke-width="5" stroke-linecap="round" opacity="0.84"/>
  <path d="M74 45v51" stroke="#0c5c42" stroke-width="4" stroke-linecap="round" opacity="0.45"/>
  <path d="M89 53c8 6 8 24 0 30M100 44c15 14 15 48 0 62" fill="none" stroke="#eafff4" stroke-width="7" stroke-linecap="round"/>
  <path d="M91 62c3 4 3 12 0 16" fill="none" stroke="#72f0b8" stroke-width="5" stroke-linecap="round"/>
</svg>
